<svg width="20" height="16" viewBox="0 0 20 16" fill="none" xmlns="http://www.w3.org/2000/svg">
<g id="Vector">
<path id="Vector_2" d="M0.857147 1.14374C0.857147 0.840638 0.977555 0.549947 1.19188 0.33562C1.40621 0.121293 1.6969 0.00088501 2 0.00088501H18C18.3031 0.00088501 18.5938 0.121293 18.8081 0.33562C19.0225 0.549947 19.1429 0.840638 19.1429 1.14374V3.42946C19.1429 3.73256 19.0225 4.02325 18.8081 4.23758C18.5938 4.45191 18.3031 4.57231 18 4.57231V13.1437C18 13.9015 17.699 14.6282 17.1632 15.164C16.6273 15.6999 15.9006 16.0009 15.1429 16.0009H4.85715C4.09939 16.0009 3.37266 15.6999 2.83684 15.164C2.30102 14.6282 2 13.9015 2 13.1437V4.57231C1.6969 4.57231 1.40621 4.45191 1.19188 4.23758C0.977555 4.02325 0.857147 3.73256 0.857147 3.42946V1.14374ZM3.14286 4.57231V13.1437C3.14286 13.5984 3.32347 14.0344 3.64496 14.3559C3.96646 14.6774 4.40249 14.858 4.85715 14.858H15.1429C15.5975 14.858 16.0336 14.6774 16.355 14.3559C16.6765 14.0344 16.8571 13.5984 16.8571 13.1437V4.57231H3.14286ZM18 1.14374H2V3.42946H18V1.14374ZM6.57143 7.42946C6.57143 7.2779 6.63164 7.13256 6.7388 7.0254C6.84596 6.91823 6.99131 6.85803 7.14286 6.85803H12.8571C13.0087 6.85803 13.154 6.91823 13.2612 7.0254C13.3684 7.13256 13.4286 7.2779 13.4286 7.42946C13.4286 7.58101 13.3684 7.72635 13.2612 7.83352C13.154 7.94068 13.0087 8.00089 12.8571 8.00089H7.14286C6.99131 8.00089 6.84596 7.94068 6.7388 7.83352C6.63164 7.72635 6.57143 7.58101 6.57143 7.42946Z" fill="#384250"/>
</g>
</svg>
