<svg width="52" height="20" viewBox="0 0 52 20" fill="none" xmlns="http://www.w3.org/2000/svg">
<rect x="0.4" y="0.4" width="50.8667" height="19.2" rx="7.6" fill="white"/>
<rect x="0.4" y="0.4" width="50.8667" height="19.2" rx="7.6" stroke="#CED0D6" stroke-width="0.8"/>
<path d="M8 14.5833C8 14.6938 8.0439 14.7998 8.12204 14.878C8.20018 14.9561 8.30616 15 8.41667 15H11.5808C11.6556 15.0001 11.7291 14.98 11.7935 14.9418C11.8578 14.9037 11.9108 14.849 11.9467 14.7833L16.3333 5.83333H19.25C19.3605 5.83333 19.4665 5.78943 19.5446 5.71129C19.6228 5.63315 19.6667 5.52717 19.6667 5.41667C19.6667 5.30616 19.6228 5.20018 19.5446 5.12204C19.4665 5.0439 19.3605 5 19.25 5H16.0858C16.011 4.99995 15.9376 5.02003 15.8732 5.05816C15.8088 5.09628 15.7559 5.15104 15.72 5.21667L11.3333 14.1667H8.41667C8.30616 14.1667 8.20018 14.2106 8.12204 14.2887C8.0439 14.3668 8 14.4728 8 14.5833ZM16.3333 14.5833C16.3333 14.6938 16.3772 14.7998 16.4554 14.878C16.5335 14.9561 16.6395 15 16.75 15H19.25C19.3605 15 19.4665 14.9561 19.5446 14.878C19.6228 14.7998 19.6667 14.6938 19.6667 14.5833C19.6667 14.4728 19.6228 14.3668 19.5446 14.2887C19.4665 14.2106 19.3605 14.1667 19.25 14.1667H16.75C16.6395 14.1667 16.5335 14.2106 16.4554 14.2887C16.3772 14.3668 16.3333 14.4728 16.3333 14.5833Z" fill="#222222"/>
<path fill-rule="evenodd" clip-rule="evenodd" d="M27.6667 6C27.7551 6 27.8399 6.03512 27.9024 6.09763C27.9649 6.16014 28 6.24493 28 6.33333V9.66667H31.3333C31.4217 9.66667 31.5065 9.70179 31.569 9.7643C31.6316 9.82681 31.6667 9.91159 31.6667 10C31.6667 10.0884 31.6316 10.1732 31.569 10.2357C31.5065 10.2982 31.4217 10.3333 31.3333 10.3333H28V13.6667C28 13.7551 27.9649 13.8399 27.9024 13.9024C27.8399 13.9649 27.7551 14 27.6667 14C27.5783 14 27.4935 13.9649 27.431 13.9024C27.3685 13.8399 27.3333 13.7551 27.3333 13.6667V10.3333H24C23.9116 10.3333 23.8268 10.2982 23.7643 10.2357C23.7018 10.1732 23.6667 10.0884 23.6667 10C23.6667 9.91159 23.7018 9.82681 23.7643 9.7643C23.8268 9.70179 23.9116 9.66667 24 9.66667H27.3333V6.33333C27.3333 6.24493 27.3685 6.16014 27.431 6.09763C27.4935 6.03512 27.5783 6 27.6667 6Z" fill="#222222"/>
<path d="M37.8108 15C37.5681 15 37.3688 14.9263 37.2128 14.779C37.0654 14.623 36.9918 14.4323 36.9918 14.207V6.693C36.9918 6.46767 37.0654 6.28133 37.2128 6.134C37.3688 5.978 37.5594 5.9 37.7848 5.9H42.0098C42.2351 5.9 42.4214 5.97367 42.5688 6.121C42.7248 6.25967 42.8028 6.44167 42.8028 6.667C42.8028 6.85767 42.7248 7.02667 42.5688 7.174C42.4214 7.32133 42.2351 7.395 42.0098 7.395H38.4998L38.6168 7.239V9.852L38.5258 9.683H41.4248C41.6501 9.683 41.8364 9.75667 41.9838 9.904C42.1398 10.0427 42.2178 10.2247 42.2178 10.45C42.2178 10.6407 42.1398 10.8097 41.9838 10.957C41.8364 11.1043 41.6501 11.178 41.4248 11.178H38.4998L38.6168 11.061V14.207C38.6168 14.4323 38.5344 14.623 38.3698 14.779C38.2138 14.9263 38.0274 15 37.8108 15Z" fill="#222222"/>
</svg>
