<svg width="18" height="16" viewBox="0 0 18 16" fill="none" xmlns="http://www.w3.org/2000/svg">
<g id="favorite-regular">
<path id="favorite-regular_2" d="M8.53319 2.93124L7.7684 2.14511C5.9732 0.299784 2.68148 0.936582 1.49322 3.25657C0.935352 4.34777 0.809485 5.92323 1.82815 7.93389C2.80948 9.86989 4.85107 12.1888 8.53319 14.7147C12.2153 12.1888 14.2558 9.86989 15.2382 7.93389C16.2569 5.92217 16.1321 4.34777 15.5732 3.25657C14.3849 0.936582 11.0932 0.298718 9.29799 2.14405L8.53319 2.93124ZM8.53319 16C-7.82195 5.19257 3.49748 -3.2426 8.34546 1.21925C8.40946 1.27827 8.47204 1.33907 8.53319 1.40165C8.59328 1.33868 8.65591 1.27818 8.72093 1.22031C13.5678 -3.24474 24.8883 5.1915 8.53319 16Z" fill="#384250"/>
</g>
</svg>
