<svg width="25" height="24" viewBox="0 0 25 24" fill="none" xmlns="http://www.w3.org/2000/svg">
<g id="grid-regular">
<path id="grid-regular_2" d="M0.875 2.57143C0.875 1.88944 1.14592 1.23539 1.62815 0.753154C2.11039 0.270918 2.76444 0 3.44643 0H8.58929C9.27127 0 9.92532 0.270918 10.4076 0.753154C10.8898 1.23539 11.1607 1.88944 11.1607 2.57143V7.71429C11.1607 8.39627 10.8898 9.05032 10.4076 9.53256C9.92532 10.0148 9.27127 10.2857 8.58929 10.2857H3.44643C2.76444 10.2857 2.11039 10.0148 1.62815 9.53256C1.14592 9.05032 0.875 8.39627 0.875 7.71429V2.57143ZM3.44643 1.71429C3.2191 1.71429 3.00108 1.80459 2.84034 1.96534C2.67959 2.12608 2.58929 2.3441 2.58929 2.57143V7.71429C2.58929 7.94161 2.67959 8.15963 2.84034 8.32038C3.00108 8.48112 3.2191 8.57143 3.44643 8.57143H8.58929C8.81661 8.57143 9.03463 8.48112 9.19538 8.32038C9.35612 8.15963 9.44643 7.94161 9.44643 7.71429V2.57143C9.44643 2.3441 9.35612 2.12608 9.19538 1.96534C9.03463 1.80459 8.81661 1.71429 8.58929 1.71429H3.44643ZM14.5893 2.57143C14.5893 1.88944 14.8602 1.23539 15.3424 0.753154C15.8247 0.270918 16.4787 0 17.1607 0H22.3036C22.9856 0 23.6396 0.270918 24.1218 0.753154C24.6041 1.23539 24.875 1.88944 24.875 2.57143V7.71429C24.875 8.39627 24.6041 9.05032 24.1218 9.53256C23.6396 10.0148 22.9856 10.2857 22.3036 10.2857H17.1607C16.4787 10.2857 15.8247 10.0148 15.3424 9.53256C14.8602 9.05032 14.5893 8.39627 14.5893 7.71429V2.57143ZM17.1607 1.71429C16.9334 1.71429 16.7154 1.80459 16.5546 1.96534C16.3939 2.12608 16.3036 2.3441 16.3036 2.57143V7.71429C16.3036 7.94161 16.3939 8.15963 16.5546 8.32038C16.7154 8.48112 16.9334 8.57143 17.1607 8.57143H22.3036C22.5309 8.57143 22.7489 8.48112 22.9097 8.32038C23.0704 8.15963 23.1607 7.94161 23.1607 7.71429V2.57143C23.1607 2.3441 23.0704 2.12608 22.9097 1.96534C22.7489 1.80459 22.5309 1.71429 22.3036 1.71429H17.1607ZM0.875 16.2857C0.875 15.6037 1.14592 14.9497 1.62815 14.4674C2.11039 13.9852 2.76444 13.7143 3.44643 13.7143H8.58929C9.27127 13.7143 9.92532 13.9852 10.4076 14.4674C10.8898 14.9497 11.1607 15.6037 11.1607 16.2857V21.4286C11.1607 22.1106 10.8898 22.7646 10.4076 23.2468C9.92532 23.7291 9.27127 24 8.58929 24H3.44643C2.76444 24 2.11039 23.7291 1.62815 23.2468C1.14592 22.7646 0.875 22.1106 0.875 21.4286V16.2857ZM3.44643 15.4286C3.2191 15.4286 3.00108 15.5189 2.84034 15.6796C2.67959 15.8404 2.58929 16.0584 2.58929 16.2857V21.4286C2.58929 21.6559 2.67959 21.8739 2.84034 22.0347C3.00108 22.1954 3.2191 22.2857 3.44643 22.2857H8.58929C8.81661 22.2857 9.03463 22.1954 9.19538 22.0347C9.35612 21.8739 9.44643 21.6559 9.44643 21.4286V16.2857C9.44643 16.0584 9.35612 15.8404 9.19538 15.6796C9.03463 15.5189 8.81661 15.4286 8.58929 15.4286H3.44643ZM14.5893 16.2857C14.5893 15.6037 14.8602 14.9497 15.3424 14.4674C15.8247 13.9852 16.4787 13.7143 17.1607 13.7143H22.3036C22.9856 13.7143 23.6396 13.9852 24.1218 14.4674C24.6041 14.9497 24.875 15.6037 24.875 16.2857V21.4286C24.875 22.1106 24.6041 22.7646 24.1218 23.2468C23.6396 23.7291 22.9856 24 22.3036 24H17.1607C16.4787 24 15.8247 23.7291 15.3424 23.2468C14.8602 22.7646 14.5893 22.1106 14.5893 21.4286V16.2857ZM17.1607 15.4286C16.9334 15.4286 16.7154 15.5189 16.5546 15.6796C16.3939 15.8404 16.3036 16.0584 16.3036 16.2857V21.4286C16.3036 21.6559 16.3939 21.8739 16.5546 22.0347C16.7154 22.1954 16.9334 22.2857 17.1607 22.2857H22.3036C22.5309 22.2857 22.7489 22.1954 22.9097 22.0347C23.0704 21.8739 23.1607 21.6559 23.1607 21.4286V16.2857C23.1607 16.0584 23.0704 15.8404 22.9097 15.6796C22.7489 15.5189 22.5309 15.4286 22.3036 15.4286H17.1607Z" fill="#222222"/>
</g>
</svg>
