<svg width="14" height="13" viewBox="0 0 14 13" fill="none" xmlns="http://www.w3.org/2000/svg">
<g id="Vector">
<path id="Vector_2" fill-rule="evenodd" clip-rule="evenodd" d="M2.4978 5.43078L3.65848 6.5915L4.42993 5.82007L5.3585 6.74864L4.58706 7.52008L5.97992 8.91294L6.75136 8.1415L7.67993 9.07007L6.90848 9.84149L8.06922 11.0022L7.14065 11.9308L6.67637 11.4665C5.55329 12.5896 3.81896 12.7289 2.54426 11.8844L1.42857 13L0.5 12.0714L1.61564 10.9557C0.771142 9.68104 0.910432 7.94671 2.03351 6.82363L1.56922 6.35935L2.4978 5.43078ZM1.88319 0.454622L13.0454 11.6168L12.1168 12.5454L0.954622 1.38319L1.88319 0.454622ZM2.96208 7.7522C2.19283 8.52146 2.19283 9.76867 2.96208 10.5379C3.70386 11.2797 4.89006 11.3062 5.66359 10.6174L5.7478 10.5379L2.96208 7.7522ZM12.5714 0L13.5 0.928571L12.0561 2.37256C12.9006 3.64726 12.7613 5.38159 11.6382 6.50467L12.1025 6.96895L11.1739 7.89752L5.60248 2.3261L6.53105 1.39752L6.99533 1.86181C8.11841 0.738731 9.85274 0.599441 11.1274 1.44394L12.5714 0ZM8.00811 2.7109L7.92391 2.79038L10.6748 5.54124C11.2206 4.71275 11.372 3.45272 10.7096 2.79038C9.96784 2.0486 8.78164 2.02211 8.00811 2.7109Z" fill="#696D7F"/>
</g>
</svg>
