<svg width="10" height="16" viewBox="0 0 10 16" fill="none" xmlns="http://www.w3.org/2000/svg">
<g id="pin-regular">
<path id="pin-regular_2" d="M1.146 0.146855C1.19252 0.100453 1.24773 0.0636754 1.30847 0.0386237C1.36921 0.013572 1.4343 0.000737943 1.5 0.00085529H8.5C8.63261 0.00085529 8.75979 0.0535337 8.85355 0.147302C8.94732 0.24107 9 0.368247 9 0.500855C9 1.18086 8.658 1.67486 8.354 1.97986C8.228 2.10486 8.104 2.20386 8 2.27786V6.70886L8.078 6.75686C8.281 6.88386 8.554 7.07086 8.829 7.31186C9.36 7.77586 10 8.52786 10 9.50086C10 9.63346 9.94732 9.76064 9.85355 9.85441C9.75979 9.94818 9.63261 10.0009 9.5 10.0009H5.5V14.5009C5.5 14.7769 5.276 16.0009 5 16.0009C4.724 16.0009 4.5 14.7769 4.5 14.5009V10.0009H0.5C0.367392 10.0009 0.240215 9.94818 0.146447 9.85441C0.0526785 9.76064 0 9.63346 0 9.50086C0 8.52786 0.64 7.77586 1.17 7.31186C1.42894 7.08753 1.70663 6.88579 2 6.70886V2.27786C1.8745 2.18778 1.75615 2.08815 1.646 1.97986C1.342 1.67486 1 1.17986 1 0.500855C0.999883 0.43515 1.01272 0.370067 1.03777 0.309325C1.06282 0.248583 1.0996 0.193374 1.146 0.146855ZM2.724 1.55386L2.726 1.55486C2.80842 1.59662 2.87766 1.66041 2.92603 1.73914C2.97439 1.81786 3 1.90846 3 2.00086V7.00086C3 7.09363 2.97418 7.18458 2.92544 7.26352C2.87669 7.34247 2.80695 7.40629 2.724 7.44786H2.722L2.71 7.45486L2.656 7.48486C2.36146 7.64978 2.08438 7.8441 1.829 8.06486C1.511 8.34286 1.244 8.66086 1.104 9.00086H8.896C8.756 8.66086 8.489 8.34286 8.171 8.06486C7.90003 7.83055 7.60467 7.62604 7.29 7.45486L7.278 7.44886H7.276C7.1929 7.40721 7.12305 7.34324 7.0743 7.2641C7.02555 7.18496 6.99982 7.0938 7 7.00086V2.00086C6.99962 1.90416 7.02729 1.80944 7.07965 1.72815C7.132 1.64686 7.20681 1.5825 7.295 1.54286C7.42272 1.46733 7.54062 1.37631 7.646 1.27186C7.726 1.19186 7.801 1.10186 7.86 1.00086H2.14C2.20067 1.10086 2.272 1.19119 2.354 1.27186C2.46462 1.38146 2.58899 1.47626 2.724 1.55386Z" fill="#384250"/>
</g>
</svg>
