<svg width="25" height="24" viewBox="0 0 25 24" fill="none" xmlns="http://www.w3.org/2000/svg">
<g id="row-regular">
<path id="row-regular_2" d="M23.375 9L23.375 1.5L2.375 1.5L2.375 9L23.375 9ZM23.375 22.5L23.375 15L15.875 15L15.875 22.5L23.375 22.5ZM9.875 22.5L2.375 22.5L2.375 15L9.875 15L9.875 22.5ZM23.375 -6.55671e-08C23.7728 -4.81776e-08 24.1544 0.158035 24.4357 0.43934C24.717 0.720644 24.875 1.10218 24.875 1.5L24.875 9C24.875 9.39782 24.717 9.77936 24.4357 10.0607C24.1544 10.342 23.7728 10.5 23.375 10.5L2.375 10.5C1.97717 10.5 1.59564 10.342 1.31434 10.0607C1.03303 9.77935 0.875 9.39782 0.875 9L0.875 1.5C0.875 1.10217 1.03304 0.720643 1.31434 0.439339C1.59564 0.158034 1.97717 -1.0009e-06 2.375 -9.83506e-07L23.375 -6.55671e-08ZM23.375 13.5C23.7728 13.5 24.1544 13.658 24.4357 13.9393C24.717 14.2206 24.875 14.6022 24.875 15L24.875 22.5C24.875 22.8978 24.717 23.2794 24.4357 23.5607C24.1544 23.842 23.7728 24 23.375 24L15.875 24C15.4772 24 15.0956 23.842 14.8143 23.5607C14.533 23.2794 14.375 22.8978 14.375 22.5L14.375 15C14.375 14.6022 14.533 14.2206 14.8143 13.9393C15.0956 13.658 15.4772 13.5 15.875 13.5L23.375 13.5ZM11.375 15C11.375 14.6022 11.217 14.2206 10.9357 13.9393C10.6544 13.658 10.2728 13.5 9.875 13.5L2.375 13.5C1.97717 13.5 1.59564 13.658 1.31434 13.9393C1.03303 14.2206 0.874999 14.6022 0.874999 15L0.874999 22.5C0.874999 22.8978 1.03303 23.2794 1.31434 23.5607C1.59564 23.842 1.97717 24 2.375 24L9.875 24C10.2728 24 10.6544 23.842 10.9357 23.5607C11.217 23.2794 11.375 22.8978 11.375 22.5L11.375 15Z" fill="#222222"/>
</g>
</svg>
