<svg width="31" height="24" viewBox="0 0 31 24" fill="none" xmlns="http://www.w3.org/2000/svg">
<g id="sync-solid">
<path id="Vector" d="M22.5081 9.99922H30.375C30.47 9.99925 30.5631 10.0264 30.6433 10.0774C30.7235 10.1284 30.7875 10.2012 30.8278 10.2873C30.8681 10.3733 30.883 10.4691 30.8709 10.5634C30.8587 10.6576 30.82 10.7465 30.7591 10.8195L26.8257 15.5413C26.7787 15.5975 26.72 15.6428 26.6536 15.6739C26.5872 15.705 26.5148 15.7211 26.4415 15.7211C26.3682 15.7211 26.2958 15.705 26.2295 15.6739C26.1631 15.6428 26.1043 15.5975 26.0574 15.5413L22.124 10.8195C22.0631 10.7465 22.0244 10.6576 22.0122 10.5634C22.0001 10.4691 22.015 10.3733 22.0553 10.2873C22.0956 10.2012 22.1596 10.1284 22.2398 10.0774C22.32 10.0264 22.4131 9.99925 22.5081 9.99922ZM0.499997 14.0007H8.36689C8.46194 14.0007 8.555 13.9735 8.63519 13.9225C8.71538 13.8715 8.77937 13.7987 8.81968 13.7126C8.85999 13.6266 8.87494 13.5308 8.86278 13.4365C8.85062 13.3423 8.81186 13.2534 8.75103 13.1804L4.81759 8.45865C4.77064 8.40236 4.7119 8.35707 4.64552 8.32599C4.57914 8.29492 4.50674 8.27881 4.43344 8.27881C4.36015 8.27881 4.28775 8.29492 4.22137 8.32599C4.15499 8.35707 4.09625 8.40236 4.0493 8.45865L0.115856 13.1804C0.0550286 13.2534 0.0162669 13.3423 0.00410937 13.4365C-0.00804812 13.5308 0.0069018 13.6266 0.0472086 13.7126C0.0875154 13.7987 0.151511 13.8715 0.2317 13.9225C0.31189 13.9735 0.404955 14.0007 0.499997 14.0007Z" fill="#222222"/>
<path id="Vector_2" fill-rule="evenodd" clip-rule="evenodd" d="M15.4373 1.99632C12.3322 1.99632 9.55516 3.41084 7.72049 5.63366C7.63856 5.73984 7.53612 5.82847 7.41926 5.89427C7.30239 5.96007 7.17349 6.0017 7.04022 6.01669C6.90694 6.03167 6.77201 6.0197 6.64345 5.9815C6.5149 5.94329 6.39533 5.87962 6.29187 5.79428C6.18842 5.70893 6.10318 5.60366 6.04122 5.48471C5.97926 5.36576 5.94186 5.23557 5.93123 5.10188C5.9206 4.96819 5.93696 4.83372 5.97934 4.70648C6.02171 4.57923 6.08925 4.46181 6.17792 4.36119C7.64284 2.58759 9.58635 1.27207 11.7773 0.571104C13.9683 -0.129865 16.3145 -0.186786 18.5368 0.40711C20.7592 1.00101 22.7642 2.22073 24.3134 3.9212C25.8626 5.62167 26.8908 7.73133 27.2757 9.99926H25.2409C24.7797 7.7397 23.5519 5.70889 21.7655 4.25053C19.979 2.79218 17.7435 1.99585 15.4373 1.99632ZM5.63372 14.0007C6.01248 15.8507 6.90689 17.5557 8.21362 18.9188C9.52035 20.282 11.1861 21.2476 13.0184 21.7041C14.8506 22.1607 16.7747 22.0895 18.5683 21.4989C20.3618 20.9083 21.9517 19.8223 23.1542 18.3663C23.2361 18.2602 23.3385 18.1715 23.4554 18.1057C23.5723 18.0399 23.7012 17.9983 23.8344 17.9833C23.9677 17.9683 24.1026 17.9803 24.2312 18.0185C24.3598 18.0567 24.4793 18.1204 24.5828 18.2057C24.6862 18.2911 24.7715 18.3963 24.8334 18.5153C24.8954 18.6342 24.9328 18.7644 24.9434 18.8981C24.9541 19.0318 24.9377 19.1663 24.8953 19.2935C24.8529 19.4208 24.7854 19.5382 24.6967 19.6388C23.2318 21.4124 21.2883 22.7279 19.0973 23.4289C16.9064 24.1299 14.5602 24.1868 12.3378 23.5929C10.1155 22.999 8.11044 21.7793 6.56124 20.0788C5.01203 18.3783 3.98385 16.2687 3.59897 14.0007H5.63372Z" fill="#222222"/>
</g>
</svg>
