<svg width="14" height="16" viewBox="0 0 14 16" fill="none" xmlns="http://www.w3.org/2000/svg">
<g id="trash-regular">
<path id="Vector" d="M4.33335 5.86664C4.4748 5.86664 4.61046 5.92283 4.71048 6.02285C4.81049 6.12287 4.86669 6.25852 4.86669 6.39997V12.8C4.86669 12.9414 4.81049 13.0771 4.71048 13.1771C4.61046 13.2771 4.4748 13.3333 4.33335 13.3333C4.1919 13.3333 4.05625 13.2771 3.95623 13.1771C3.85621 13.0771 3.80002 12.9414 3.80002 12.8V6.39997C3.80002 6.25852 3.85621 6.12287 3.95623 6.02285C4.05625 5.92283 4.1919 5.86664 4.33335 5.86664ZM7.00002 5.86664C7.14147 5.86664 7.27712 5.92283 7.37714 6.02285C7.47716 6.12287 7.53335 6.25852 7.53335 6.39997V12.8C7.53335 12.9414 7.47716 13.0771 7.37714 13.1771C7.27712 13.2771 7.14147 13.3333 7.00002 13.3333C6.85857 13.3333 6.72291 13.2771 6.6229 13.1771C6.52288 13.0771 6.46669 12.9414 6.46669 12.8V6.39997C6.46669 6.25852 6.52288 6.12287 6.6229 6.02285C6.72291 5.92283 6.85857 5.86664 7.00002 5.86664ZM10.2 6.39997C10.2 6.25852 10.1438 6.12287 10.0438 6.02285C9.94379 5.92283 9.80813 5.86664 9.66669 5.86664C9.52524 5.86664 9.38958 5.92283 9.28956 6.02285C9.18954 6.12287 9.13335 6.25852 9.13335 6.39997V12.8C9.13335 12.9414 9.18954 13.0771 9.28956 13.1771C9.38958 13.2771 9.52524 13.3333 9.66669 13.3333C9.80813 13.3333 9.94379 13.2771 10.0438 13.1771C10.1438 13.0771 10.2 12.9414 10.2 12.8V6.39997Z" fill="#384250"/>
<path id="Vector_2" d="M13.9333 3.2C13.9333 3.4829 13.821 3.75421 13.6209 3.95425C13.4209 4.15429 13.1496 4.26667 12.8667 4.26667H12.3333V13.8667C12.3333 14.4325 12.1086 14.9751 11.7085 15.3752C11.3084 15.7752 10.7658 16 10.2 16H3.80001C3.23422 16 2.6916 15.7752 2.29152 15.3752C1.89144 14.9751 1.66668 14.4325 1.66668 13.8667V4.26667H1.13335C0.85045 4.26667 0.579139 4.15429 0.3791 3.95425C0.179061 3.75421 0.0666809 3.4829 0.0666809 3.2V2.13333C0.0666809 1.85044 0.179061 1.57912 0.3791 1.37909C0.579139 1.17905 0.85045 1.06667 1.13335 1.06667H4.86668C4.86668 0.783769 4.97906 0.512458 5.1791 0.312419C5.37914 0.112381 5.65045 0 5.93335 0L8.06668 0C8.34958 0 8.62089 0.112381 8.82093 0.312419C9.02097 0.512458 9.13335 0.783769 9.13335 1.06667H12.8667C13.1496 1.06667 13.4209 1.17905 13.6209 1.37909C13.821 1.57912 13.9333 1.85044 13.9333 2.13333V3.2ZM2.85921 4.26667L2.73335 4.3296V13.8667C2.73335 14.1496 2.84573 14.4209 3.04577 14.6209C3.24581 14.821 3.51712 14.9333 3.80001 14.9333H10.2C10.4829 14.9333 10.7542 14.821 10.9543 14.6209C11.1543 14.4209 11.2667 14.1496 11.2667 13.8667V4.3296L11.1408 4.26667H2.85921ZM1.13335 3.2H12.8667V2.13333H1.13335V3.2Z" fill="#384250"/>
</g>
</svg>
